<mxfile host="app.diagrams.net" agent="Mozilla/5.0 (Macintosh; Intel Mac OS X 10_15_7) AppleWebKit/537.36 (KHTML, like Gecko) Chrome/135.0.0.0 Safari/537.36" version="26.2.15">
  <diagram id="6a731a19-8d31-9384-78a2-239565b7b9f0" name="Page-1">
    <mxGraphModel dx="1763" dy="1177" grid="1" gridSize="10" guides="1" tooltips="1" connect="1" arrows="1" fold="1" page="1" pageScale="1" pageWidth="1169" pageHeight="827" background="#003469" math="0" shadow="0">
      <root>
        <mxCell id="0" />
        <mxCell id="1" parent="0" />
        <mxCell id="2019" value="" style="rounded=1;whiteSpace=wrap;html=1;dashed=1;strokeColor=none;strokeWidth=2;fillColor=#E6E6E6;fontFamily=Verdana;fontSize=12;fontColor=#00BEF2" parent="1" vertex="1">
          <mxGeometry x="40" y="120" width="165" height="670" as="geometry" />
        </mxCell>
        <mxCell id="2020" value="" style="rounded=1;whiteSpace=wrap;html=1;dashed=1;strokeColor=none;strokeWidth=2;fillColor=#E6E6E6;fontFamily=Verdana;fontSize=12;fontColor=#00BEF2" parent="1" vertex="1">
          <mxGeometry x="220" y="120" width="165" height="350" as="geometry" />
        </mxCell>
        <mxCell id="2021" value="" style="rounded=1;whiteSpace=wrap;html=1;dashed=1;strokeColor=none;strokeWidth=2;fillColor=#E6E6E6;fontFamily=Verdana;fontSize=12;fontColor=#00BEF2" parent="1" vertex="1">
          <mxGeometry x="400" y="120" width="165" height="670" as="geometry" />
        </mxCell>
        <mxCell id="2022" value="" style="rounded=1;whiteSpace=wrap;html=1;dashed=1;strokeColor=none;strokeWidth=2;fillColor=#E6E6E6;fontFamily=Verdana;fontSize=12;fontColor=#00BEF2" parent="1" vertex="1">
          <mxGeometry x="580" y="120" width="165" height="670" as="geometry" />
        </mxCell>
        <mxCell id="2023" value="" style="rounded=1;whiteSpace=wrap;html=1;dashed=1;strokeColor=none;strokeWidth=2;fillColor=#E6E6E6;fontFamily=Verdana;fontSize=12;fontColor=#00BEF2" parent="1" vertex="1">
          <mxGeometry x="760" y="120" width="165" height="670" as="geometry" />
        </mxCell>
        <mxCell id="2024" value="" style="rounded=1;whiteSpace=wrap;html=1;dashed=1;strokeColor=none;strokeWidth=2;fillColor=#E6E6E6;fontFamily=Verdana;fontSize=12;fontColor=#00BEF2" parent="1" vertex="1">
          <mxGeometry x="940" y="130" width="165" height="670" as="geometry" />
        </mxCell>
        <mxCell id="2025" value="Starting Screen" style="whiteSpace=wrap;html=1;dashed=1;strokeColor=none;strokeWidth=2;fillColor=#3399FF;fontFamily=Helvetica;fontSize=18;fontColor=#FFFFFF;fontStyle=1" parent="1" vertex="1">
          <mxGeometry x="40" y="120" width="165" height="60" as="geometry" />
        </mxCell>
        <mxCell id="2TeZE-8osMq4zGrxvG5n-2120" style="edgeStyle=orthogonalEdgeStyle;rounded=0;orthogonalLoop=1;jettySize=auto;html=1;exitX=1;exitY=0.5;exitDx=0;exitDy=0;entryX=0;entryY=0.5;entryDx=0;entryDy=0;" edge="1" parent="1" source="2026" target="2027">
          <mxGeometry relative="1" as="geometry" />
        </mxCell>
        <mxCell id="2026" value="Multiplayer" style="whiteSpace=wrap;html=1;dashed=1;strokeColor=none;strokeWidth=2;fillColor=#3399FF;fontFamily=Helvetica;fontSize=18;fontColor=#FFFFFF;fontStyle=1" parent="1" vertex="1">
          <mxGeometry x="220" y="120" width="165" height="60" as="geometry" />
        </mxCell>
        <mxCell id="2027" value="Game-Specific Options" style="whiteSpace=wrap;html=1;dashed=1;strokeColor=none;strokeWidth=2;fillColor=#3399FF;fontFamily=Helvetica;fontSize=18;fontColor=#FFFFFF;fontStyle=1" parent="1" vertex="1">
          <mxGeometry x="400" y="120" width="165" height="60" as="geometry" />
        </mxCell>
        <mxCell id="2TeZE-8osMq4zGrxvG5n-2123" style="edgeStyle=orthogonalEdgeStyle;rounded=0;orthogonalLoop=1;jettySize=auto;html=1;entryX=0;entryY=0.5;entryDx=0;entryDy=0;" edge="1" parent="1" target="2030">
          <mxGeometry relative="1" as="geometry">
            <mxPoint x="730" y="119" as="sourcePoint" />
            <Array as="points">
              <mxPoint x="730" y="119" />
              <mxPoint x="730" y="80" />
              <mxPoint x="930" y="80" />
              <mxPoint x="930" y="150" />
            </Array>
          </mxGeometry>
        </mxCell>
        <mxCell id="2028" value="Game" style="whiteSpace=wrap;html=1;dashed=1;strokeColor=none;strokeWidth=2;fillColor=#3399FF;fontFamily=Helvetica;fontSize=18;fontColor=#FFFFFF;fontStyle=1" parent="1" vertex="1">
          <mxGeometry x="580" y="120" width="165" height="60" as="geometry" />
        </mxCell>
        <mxCell id="2029" value="Pause Screen" style="whiteSpace=wrap;html=1;dashed=1;strokeColor=none;strokeWidth=2;fillColor=#3399FF;fontFamily=Helvetica;fontSize=18;fontColor=#FFFFFF;fontStyle=1" parent="1" vertex="1">
          <mxGeometry x="760" y="120" width="165" height="60" as="geometry" />
        </mxCell>
        <mxCell id="2030" value="Ending Screen" style="whiteSpace=wrap;html=1;dashed=1;strokeColor=none;strokeWidth=2;fillColor=#3399FF;fontFamily=Helvetica;fontSize=18;fontColor=#FFFFFF;fontStyle=1" parent="1" vertex="1">
          <mxGeometry x="940" y="120" width="165" height="60" as="geometry" />
        </mxCell>
        <mxCell id="2047" value="UI Flowchart" style="text;html=1;strokeColor=none;fillColor=none;align=center;verticalAlign=middle;whiteSpace=wrap;overflow=hidden;dashed=1;fontSize=36;fontColor=#FFFFFF;fontFamily=Helvetica;fontStyle=1" parent="1" vertex="1">
          <mxGeometry x="40" y="50" width="1060" height="50" as="geometry" />
        </mxCell>
        <mxCell id="2TeZE-8osMq4zGrxvG5n-2096" value="" style="rounded=1;whiteSpace=wrap;html=1;dashed=1;strokeColor=none;strokeWidth=2;fillColor=#E6E6E6;fontFamily=Verdana;fontSize=12;fontColor=#00BEF2" vertex="1" parent="1">
          <mxGeometry x="220.5" y="490" width="165" height="299" as="geometry" />
        </mxCell>
        <mxCell id="2TeZE-8osMq4zGrxvG5n-2121" style="edgeStyle=orthogonalEdgeStyle;rounded=0;orthogonalLoop=1;jettySize=auto;html=1;exitX=1;exitY=0.5;exitDx=0;exitDy=0;entryX=0;entryY=0.5;entryDx=0;entryDy=0;" edge="1" parent="1" source="2TeZE-8osMq4zGrxvG5n-2097" target="2027">
          <mxGeometry relative="1" as="geometry">
            <Array as="points">
              <mxPoint x="390" y="520" />
              <mxPoint x="390" y="150" />
            </Array>
          </mxGeometry>
        </mxCell>
        <mxCell id="2TeZE-8osMq4zGrxvG5n-2097" value="Singleplayer" style="whiteSpace=wrap;html=1;dashed=1;strokeColor=none;strokeWidth=2;fillColor=#3399FF;fontFamily=Helvetica;fontSize=18;fontColor=#FFFFFF;fontStyle=1" vertex="1" parent="1">
          <mxGeometry x="220.5" y="490" width="165" height="60" as="geometry" />
        </mxCell>
        <mxCell id="2TeZE-8osMq4zGrxvG5n-2099" value="Map Selection Screen" style="rounded=0;whiteSpace=wrap;html=1;" vertex="1" parent="1">
          <mxGeometry x="422.5" y="200" width="120" height="60" as="geometry" />
        </mxCell>
        <mxCell id="2TeZE-8osMq4zGrxvG5n-2141" value="" style="edgeStyle=orthogonalEdgeStyle;rounded=0;orthogonalLoop=1;jettySize=auto;html=1;" edge="1" parent="1" source="2TeZE-8osMq4zGrxvG5n-2100" target="2TeZE-8osMq4zGrxvG5n-2119">
          <mxGeometry relative="1" as="geometry" />
        </mxCell>
        <mxCell id="2TeZE-8osMq4zGrxvG5n-2100" value="Character Selection&lt;div&gt;Screen&lt;/div&gt;" style="rounded=0;whiteSpace=wrap;html=1;" vertex="1" parent="1">
          <mxGeometry x="422.5" y="280" width="120" height="60" as="geometry" />
        </mxCell>
        <mxCell id="2TeZE-8osMq4zGrxvG5n-2140" value="" style="edgeStyle=orthogonalEdgeStyle;rounded=0;orthogonalLoop=1;jettySize=auto;html=1;" edge="1" parent="1" source="2TeZE-8osMq4zGrxvG5n-2101" target="2TeZE-8osMq4zGrxvG5n-2112">
          <mxGeometry relative="1" as="geometry" />
        </mxCell>
        <mxCell id="2TeZE-8osMq4zGrxvG5n-2143" style="edgeStyle=orthogonalEdgeStyle;rounded=0;orthogonalLoop=1;jettySize=auto;html=1;exitX=1;exitY=0.5;exitDx=0;exitDy=0;" edge="1" parent="1" source="2TeZE-8osMq4zGrxvG5n-2101">
          <mxGeometry relative="1" as="geometry">
            <mxPoint x="570" y="469.82608695652175" as="targetPoint" />
          </mxGeometry>
        </mxCell>
        <mxCell id="2TeZE-8osMq4zGrxvG5n-2101" value="Texture Pack" style="rounded=0;whiteSpace=wrap;html=1;" vertex="1" parent="1">
          <mxGeometry x="422.5" y="440" width="120" height="60" as="geometry" />
        </mxCell>
        <mxCell id="2TeZE-8osMq4zGrxvG5n-2102" value="Music Volume" style="rounded=0;whiteSpace=wrap;html=1;" vertex="1" parent="1">
          <mxGeometry x="782.5" y="200" width="120" height="60" as="geometry" />
        </mxCell>
        <mxCell id="2TeZE-8osMq4zGrxvG5n-2103" value="Toggle Narration" style="rounded=0;whiteSpace=wrap;html=1;" vertex="1" parent="1">
          <mxGeometry x="782.5" y="280" width="120" height="60" as="geometry" />
        </mxCell>
        <mxCell id="2TeZE-8osMq4zGrxvG5n-2104" value="Invite Players&lt;div&gt;Screen&lt;/div&gt;" style="rounded=0;whiteSpace=wrap;html=1;" vertex="1" parent="1">
          <mxGeometry x="242.5" y="200" width="120" height="60" as="geometry" />
        </mxCell>
        <mxCell id="2TeZE-8osMq4zGrxvG5n-2108" style="edgeStyle=orthogonalEdgeStyle;rounded=0;orthogonalLoop=1;jettySize=auto;html=1;exitX=1;exitY=0.5;exitDx=0;exitDy=0;entryX=0;entryY=0.5;entryDx=0;entryDy=0;" edge="1" parent="1" source="2TeZE-8osMq4zGrxvG5n-2105" target="2026">
          <mxGeometry relative="1" as="geometry">
            <Array as="points">
              <mxPoint x="210" y="340" />
              <mxPoint x="210" y="150" />
            </Array>
          </mxGeometry>
        </mxCell>
        <mxCell id="2TeZE-8osMq4zGrxvG5n-2105" value="Multiplayer" style="rounded=0;whiteSpace=wrap;html=1;" vertex="1" parent="1">
          <mxGeometry x="62.5" y="310" width="120" height="60" as="geometry" />
        </mxCell>
        <mxCell id="2TeZE-8osMq4zGrxvG5n-2107" style="edgeStyle=orthogonalEdgeStyle;rounded=0;orthogonalLoop=1;jettySize=auto;html=1;exitX=1;exitY=0.5;exitDx=0;exitDy=0;" edge="1" parent="1" source="2TeZE-8osMq4zGrxvG5n-2106">
          <mxGeometry relative="1" as="geometry">
            <mxPoint x="220" y="518" as="targetPoint" />
            <Array as="points">
              <mxPoint x="200" y="490" />
              <mxPoint x="200" y="518" />
              <mxPoint x="220" y="518" />
            </Array>
          </mxGeometry>
        </mxCell>
        <mxCell id="2TeZE-8osMq4zGrxvG5n-2106" value="Singleplayer" style="rounded=0;whiteSpace=wrap;html=1;" vertex="1" parent="1">
          <mxGeometry x="62.5" y="460" width="120" height="60" as="geometry" />
        </mxCell>
        <mxCell id="2TeZE-8osMq4zGrxvG5n-2111" style="edgeStyle=orthogonalEdgeStyle;rounded=0;orthogonalLoop=1;jettySize=auto;html=1;exitX=1;exitY=0.5;exitDx=0;exitDy=0;entryX=0;entryY=0.75;entryDx=0;entryDy=0;" edge="1" parent="1" source="2TeZE-8osMq4zGrxvG5n-2109" target="2029">
          <mxGeometry relative="1" as="geometry">
            <mxPoint x="760" y="170" as="targetPoint" />
            <Array as="points">
              <mxPoint x="30" y="640" />
              <mxPoint x="30" y="100" />
              <mxPoint x="750" y="100" />
              <mxPoint x="750" y="165" />
            </Array>
          </mxGeometry>
        </mxCell>
        <mxCell id="2TeZE-8osMq4zGrxvG5n-2109" value="Options" style="rounded=0;whiteSpace=wrap;html=1;" vertex="1" parent="1">
          <mxGeometry x="62.5" y="609.5" width="120" height="60" as="geometry" />
        </mxCell>
        <mxCell id="2TeZE-8osMq4zGrxvG5n-2110" value="Quit Game" style="rounded=0;whiteSpace=wrap;html=1;" vertex="1" parent="1">
          <mxGeometry x="62.5" y="700" width="120" height="60" as="geometry" />
        </mxCell>
        <mxCell id="2TeZE-8osMq4zGrxvG5n-2142" style="edgeStyle=orthogonalEdgeStyle;rounded=0;orthogonalLoop=1;jettySize=auto;html=1;exitX=1;exitY=0.5;exitDx=0;exitDy=0;entryX=0;entryY=0.5;entryDx=0;entryDy=0;" edge="1" parent="1" source="2TeZE-8osMq4zGrxvG5n-2112" target="2028">
          <mxGeometry relative="1" as="geometry">
            <Array as="points">
              <mxPoint x="570" y="550" />
              <mxPoint x="570" y="150" />
            </Array>
          </mxGeometry>
        </mxCell>
        <mxCell id="2TeZE-8osMq4zGrxvG5n-2112" value="Store Screen" style="rounded=0;whiteSpace=wrap;html=1;" vertex="1" parent="1">
          <mxGeometry x="422.5" y="520" width="120" height="60" as="geometry" />
        </mxCell>
        <mxCell id="2TeZE-8osMq4zGrxvG5n-2113" value="Start Game" style="rounded=0;whiteSpace=wrap;html=1;" vertex="1" parent="1">
          <mxGeometry x="602.5" y="200" width="120" height="60" as="geometry" />
        </mxCell>
        <mxCell id="2TeZE-8osMq4zGrxvG5n-2118" style="edgeStyle=orthogonalEdgeStyle;rounded=0;orthogonalLoop=1;jettySize=auto;html=1;exitX=1;exitY=0.5;exitDx=0;exitDy=0;entryX=0;entryY=0.75;entryDx=0;entryDy=0;" edge="1" parent="1" source="2TeZE-8osMq4zGrxvG5n-2114" target="2029">
          <mxGeometry relative="1" as="geometry">
            <mxPoint x="760" y="150" as="targetPoint" />
            <Array as="points">
              <mxPoint x="750" y="310" />
              <mxPoint x="750" y="165" />
            </Array>
          </mxGeometry>
        </mxCell>
        <mxCell id="2TeZE-8osMq4zGrxvG5n-2114" value="Pause Game" style="rounded=0;whiteSpace=wrap;html=1;" vertex="1" parent="1">
          <mxGeometry x="602.5" y="280" width="120" height="60" as="geometry" />
        </mxCell>
        <mxCell id="2TeZE-8osMq4zGrxvG5n-2115" value="&quot;Use Powerup&quot; Button" style="rounded=0;whiteSpace=wrap;html=1;" vertex="1" parent="1">
          <mxGeometry x="602.5" y="360" width="120" height="60" as="geometry" />
        </mxCell>
        <mxCell id="2TeZE-8osMq4zGrxvG5n-2116" value="Accessibility Features" style="rounded=0;whiteSpace=wrap;html=1;" vertex="1" parent="1">
          <mxGeometry x="782.5" y="360" width="120" height="60" as="geometry" />
        </mxCell>
        <mxCell id="2TeZE-8osMq4zGrxvG5n-2117" value="&quot;Use Teacher Ability&quot; Button" style="rounded=0;whiteSpace=wrap;html=1;" vertex="1" parent="1">
          <mxGeometry x="602.5" y="440" width="120" height="60" as="geometry" />
        </mxCell>
        <mxCell id="2TeZE-8osMq4zGrxvG5n-2139" style="edgeStyle=orthogonalEdgeStyle;rounded=0;orthogonalLoop=1;jettySize=auto;html=1;exitX=0.5;exitY=1;exitDx=0;exitDy=0;entryX=0.5;entryY=0;entryDx=0;entryDy=0;" edge="1" parent="1" source="2TeZE-8osMq4zGrxvG5n-2119" target="2TeZE-8osMq4zGrxvG5n-2101">
          <mxGeometry relative="1" as="geometry" />
        </mxCell>
        <mxCell id="2TeZE-8osMq4zGrxvG5n-2119" value="Set Race Count Screen" style="rounded=0;whiteSpace=wrap;html=1;" vertex="1" parent="1">
          <mxGeometry x="422.5" y="360" width="120" height="60" as="geometry" />
        </mxCell>
        <mxCell id="2TeZE-8osMq4zGrxvG5n-2126" value="Toggle Railings" style="rounded=0;whiteSpace=wrap;html=1;" vertex="1" parent="1">
          <mxGeometry x="782.5" y="440" width="120" height="60" as="geometry" />
        </mxCell>
        <mxCell id="2TeZE-8osMq4zGrxvG5n-2127" value="Toggle Auto Alignment" style="rounded=0;whiteSpace=wrap;html=1;" vertex="1" parent="1">
          <mxGeometry x="782.5" y="520" width="120" height="60" as="geometry" />
        </mxCell>
        <mxCell id="2TeZE-8osMq4zGrxvG5n-2129" value="Toggle On-Screen Mini Map" style="rounded=0;whiteSpace=wrap;html=1;" vertex="1" parent="1">
          <mxGeometry x="782.5" y="600" width="120" height="60" as="geometry" />
        </mxCell>
        <mxCell id="2TeZE-8osMq4zGrxvG5n-2130" value="Controls Diagram" style="rounded=0;whiteSpace=wrap;html=1;" vertex="1" parent="1">
          <mxGeometry x="782.5" y="680" width="120" height="60" as="geometry" />
        </mxCell>
        <mxCell id="2TeZE-8osMq4zGrxvG5n-2131" value="Play vs. Computer" style="rounded=0;whiteSpace=wrap;html=1;" vertex="1" parent="1">
          <mxGeometry x="240" y="570" width="120" height="60" as="geometry" />
        </mxCell>
        <mxCell id="2TeZE-8osMq4zGrxvG5n-2132" value="Play Solo" style="rounded=0;whiteSpace=wrap;html=1;" vertex="1" parent="1">
          <mxGeometry x="240" y="700" width="120" height="60" as="geometry" />
        </mxCell>
        <mxCell id="2TeZE-8osMq4zGrxvG5n-2133" value="" style="shape=flexArrow;endArrow=classic;startArrow=classic;html=1;rounded=0;entryX=0.5;entryY=1;entryDx=0;entryDy=0;exitX=0.5;exitY=0;exitDx=0;exitDy=0;" edge="1" parent="1">
          <mxGeometry width="100" height="100" relative="1" as="geometry">
            <mxPoint x="122.27" y="460" as="sourcePoint" />
            <mxPoint x="122.27" y="370" as="targetPoint" />
            <Array as="points" />
          </mxGeometry>
        </mxCell>
        <mxCell id="2TeZE-8osMq4zGrxvG5n-2134" value="or" style="edgeLabel;html=1;align=center;verticalAlign=middle;resizable=0;points=[];labelBackgroundColor=none;" vertex="1" connectable="0" parent="2TeZE-8osMq4zGrxvG5n-2133">
          <mxGeometry x="-0.0579" y="-1" relative="1" as="geometry">
            <mxPoint x="-1" y="-4" as="offset" />
          </mxGeometry>
        </mxCell>
        <mxCell id="2TeZE-8osMq4zGrxvG5n-2135" value="" style="shape=flexArrow;endArrow=classic;startArrow=classic;html=1;rounded=0;entryX=0.5;entryY=1;entryDx=0;entryDy=0;exitX=0.5;exitY=0;exitDx=0;exitDy=0;" edge="1" parent="1" source="2TeZE-8osMq4zGrxvG5n-2132">
          <mxGeometry width="100" height="100" relative="1" as="geometry">
            <mxPoint x="300" y="660" as="sourcePoint" />
            <mxPoint x="299.7" y="630" as="targetPoint" />
            <Array as="points" />
          </mxGeometry>
        </mxCell>
        <mxCell id="2TeZE-8osMq4zGrxvG5n-2136" value="or" style="edgeLabel;html=1;align=center;verticalAlign=middle;resizable=0;points=[];labelBackgroundColor=none;" vertex="1" connectable="0" parent="2TeZE-8osMq4zGrxvG5n-2135">
          <mxGeometry x="-0.0579" y="-1" relative="1" as="geometry">
            <mxPoint x="-1" y="-4" as="offset" />
          </mxGeometry>
        </mxCell>
        <mxCell id="2TeZE-8osMq4zGrxvG5n-2137" value="" style="endArrow=classic;html=1;rounded=0;exitX=0.5;exitY=1;exitDx=0;exitDy=0;" edge="1" parent="1" source="2TeZE-8osMq4zGrxvG5n-2099" target="2TeZE-8osMq4zGrxvG5n-2100">
          <mxGeometry width="50" height="50" relative="1" as="geometry">
            <mxPoint x="390" y="460" as="sourcePoint" />
            <mxPoint x="440" y="410" as="targetPoint" />
          </mxGeometry>
        </mxCell>
        <mxCell id="2TeZE-8osMq4zGrxvG5n-2154" value="" style="edgeStyle=orthogonalEdgeStyle;rounded=0;orthogonalLoop=1;jettySize=auto;html=1;" edge="1" parent="1" source="2TeZE-8osMq4zGrxvG5n-2145" target="2TeZE-8osMq4zGrxvG5n-2153">
          <mxGeometry relative="1" as="geometry" />
        </mxCell>
        <mxCell id="2TeZE-8osMq4zGrxvG5n-2145" value="Buddy/Commons Scene" style="rounded=0;whiteSpace=wrap;html=1;" vertex="1" parent="1">
          <mxGeometry x="962.5" y="200" width="120" height="60" as="geometry" />
        </mxCell>
        <mxCell id="2TeZE-8osMq4zGrxvG5n-2147" value="Coins Added to Account" style="rounded=0;whiteSpace=wrap;html=1;" vertex="1" parent="1">
          <mxGeometry x="962.5" y="360" width="120" height="60" as="geometry" />
        </mxCell>
        <mxCell id="2TeZE-8osMq4zGrxvG5n-2155" value="" style="edgeStyle=orthogonalEdgeStyle;rounded=0;orthogonalLoop=1;jettySize=auto;html=1;" edge="1" parent="1" source="2TeZE-8osMq4zGrxvG5n-2153" target="2TeZE-8osMq4zGrxvG5n-2147">
          <mxGeometry relative="1" as="geometry" />
        </mxCell>
        <mxCell id="2TeZE-8osMq4zGrxvG5n-2153" value="Race Results on Scroll" style="rounded=0;whiteSpace=wrap;html=1;" vertex="1" parent="1">
          <mxGeometry x="962.5" y="280" width="120" height="60" as="geometry" />
        </mxCell>
        <mxCell id="2TeZE-8osMq4zGrxvG5n-2156" value="List" style="swimlane;fontStyle=0;childLayout=stackLayout;horizontal=1;startSize=30;horizontalStack=0;resizeParent=1;resizeParentMax=0;resizeLast=0;collapsible=1;marginBottom=0;whiteSpace=wrap;html=1;" vertex="1" parent="1">
          <mxGeometry x="42.5" y="860" width="140" height="120" as="geometry" />
        </mxCell>
        <mxCell id="2TeZE-8osMq4zGrxvG5n-2157" value="Item 1" style="text;strokeColor=none;fillColor=none;align=left;verticalAlign=middle;spacingLeft=4;spacingRight=4;overflow=hidden;points=[[0,0.5],[1,0.5]];portConstraint=eastwest;rotatable=0;whiteSpace=wrap;html=1;" vertex="1" parent="2TeZE-8osMq4zGrxvG5n-2156">
          <mxGeometry y="30" width="140" height="30" as="geometry" />
        </mxCell>
        <mxCell id="2TeZE-8osMq4zGrxvG5n-2158" value="Item 2" style="text;strokeColor=none;fillColor=none;align=left;verticalAlign=middle;spacingLeft=4;spacingRight=4;overflow=hidden;points=[[0,0.5],[1,0.5]];portConstraint=eastwest;rotatable=0;whiteSpace=wrap;html=1;" vertex="1" parent="2TeZE-8osMq4zGrxvG5n-2156">
          <mxGeometry y="60" width="140" height="30" as="geometry" />
        </mxCell>
        <mxCell id="2TeZE-8osMq4zGrxvG5n-2159" value="Item 3" style="text;strokeColor=none;fillColor=none;align=left;verticalAlign=middle;spacingLeft=4;spacingRight=4;overflow=hidden;points=[[0,0.5],[1,0.5]];portConstraint=eastwest;rotatable=0;whiteSpace=wrap;html=1;" vertex="1" parent="2TeZE-8osMq4zGrxvG5n-2156">
          <mxGeometry y="90" width="140" height="30" as="geometry" />
        </mxCell>
      </root>
    </mxGraphModel>
  </diagram>
</mxfile>
